# xmcd
#
# Track frame offsets:
#	150
#	16757
#	34075
#	51786
#	68922
#	87719
#	109739
#	124496
#	139653
#	159145
#	177622
#	195409
#	209197
#	224544
#	244839
#	278654
#
# Disc length: 3795 seconds
#
# Revision: 1
# Processed by: cddbd v1.5.1PL2 Copyright (c) Steve Scherf et al.
# Submitted via: audiograbber 1.83.01
#
DISCID=f20ed110
DTITLE=Various Artist - CMA Awards2004
DYEAR=2004
DGENRE=Country
TTITLE0=Brooks and Dunn - You can't take the honky tonk out of the girl
TTITLE1=Reba McEntire - Somebody
TTITLE2=Rascal Flatts - My worst fear
TTITLE3=Dierks Bentley - How am I doin'
TTITLE4=Josh Turner - Long black train
TTITLE5=Keith Urban - You'll think of me
TTITLE6=Gretchen Wilson - Here for the party
TTITLE7=Big and Rich - Save a horse (ride a cowboy)
TTITLE8=Brad Paisley and Alsion Krauss - Whiskey lullaby
TTITLE9=Julie Roberts - Break down here
TTITLE10=Martina McBride - How far
TTITLE11=Norah Jones and Dolly Parton - Creepin' in
TTITLE12=Montgomery Gentry - If you ever stop loving me
TTITLE13=Kris Kristofferson - Sunday morning coming down
TTITLE14=Tim McGraw - Live like you were dying
TTITLE15=Data - Data Track
EXTD=
EXTT0=
EXTT1=
EXTT2=
EXTT3=
EXTT4=
EXTT5=
EXTT6=
EXTT7=
EXTT8=
EXTT9=
EXTT10=
EXTT11=
EXTT12=
EXTT13=
EXTT14=
EXTT15=
PLAYORDER=
